<svg width="139" height="33" viewBox="0 0 139 33" fill="none" xmlns="http://www.w3.org/2000/svg">
<path d="M25.3874 7.96713V32.1917H20.0831C18.6122 32.1917 17.4199 30.9995 17.4199 29.5286V28.426C17.7781 28.1294 18.1226 27.809 18.4529 27.4806C21.3647 24.5728 23.164 20.5483 23.164 16.1059C23.164 11.1579 20.9308 6.73345 17.4199 3.78362V0C19.6213 0 21.6136 0.889773 23.0564 2.33283C24.4976 3.77372 25.3871 5.76821 25.3871 7.96744L25.3874 7.96713Z" fill="white"/>
<path d="M38.9995 0.277765L38.3695 3.41006C37.2085 9.17333 31.598 12.9056 25.8375 11.7446L25.6875 11.7146C25.6875 11.7115 25.6906 11.7115 25.6906 11.7087C29.816 4.15417 34.3551 1.51701 35.1503 0.971151C28.3577 3.35316 25.8468 11.2018 25.6937 11.6908L26.3147 8.58262C27.4757 2.82183 33.0862 -0.910145 38.8495 0.247766L38.9995 0.277765Z" fill="white"/>
<path d="M16.6242 3.78325C13.8297 1.43681 10.2251 0.0234375 6.28593 0.0234375H2.89818C1.29585 0.0234375 0 1.31433 0 2.91667V29.299C0 30.2689 0.480298 31.1315 1.21513 31.6541C1.21513 31.6541 1.32523 31.7386 1.50615 31.8378C1.68707 31.9371 1.93913 32.0509 2.22428 32.1109C2.2249 32.1115 2.22582 32.1115 2.22706 32.1115C2.44138 32.1644 2.66653 32.1923 2.89818 32.1923H6.28593C10.2251 32.1923 13.8297 30.7829 16.6242 28.4275C16.9824 28.1303 17.326 27.8105 17.6563 27.4805C20.5681 24.5731 22.368 20.5488 22.368 16.1058C22.368 11.1581 20.1345 6.73338 16.6242 3.78355V3.78325ZM15.698 18.1848C14.4037 19.402 13.5207 20.0602 12.4129 19.835C12.1469 19.7809 11.1619 19.6105 11.2077 19.1116C11.2228 18.9388 12.6687 19.0844 12.9665 18.9388C13.1932 18.828 13.6893 18.4235 13.5949 18.1532C13.5312 17.9701 13.0181 17.8065 13.1688 17.5736C13.4174 17.1889 14.271 17.6921 14.6554 17.8381C15.5489 16.7337 15.9806 15.4595 15.771 14.2966C15.5007 12.8034 14.0919 11.9573 12.8289 12.3946C12.0903 12.6497 11.6159 13.0471 11.3506 13.3317C11.204 13.4888 10.9581 13.4888 10.8115 13.3317C10.5464 13.0471 10.0723 12.6497 9.33349 12.3946C8.07043 11.9573 6.66108 12.8034 6.39139 14.2966C6.06264 16.1157 7.30127 18.2107 9.42967 19.4958C9.93347 19.8001 9.53111 18.2741 10.1252 18.473C10.3726 18.3901 10.2687 19.373 10.779 20.1214C11.0929 20.5822 11.7003 20.7495 12.6223 20.8126C13.6045 20.8797 14.9164 19.5081 15.4657 20.0555C15.6844 20.2736 13.6797 21.8574 12.8889 22.0899C11.6765 22.4459 9.27163 21.5666 8.48361 21.0798C5.33245 19.1348 3.50682 16.0081 3.99795 13.2902C4.40587 11.035 6.53397 9.75712 8.44155 10.4174C9.69039 10.8492 10.4385 11.549 10.8044 11.9783C10.9504 12.1493 11.2132 12.1493 11.3592 11.9783C11.7251 11.5493 12.4729 10.8492 13.7214 10.4174C15.6293 9.75712 17.7735 10.9707 17.9408 13.358C18.0596 15.0512 17.0353 16.9282 15.6992 18.1848H15.698Z" fill="white"/>
<path d="M52.6831 24.173C52.6831 28.7029 49.0173 32.3686 44.4874 32.3686H40.3777C39.7005 32.3453 39.0933 31.7847 39.0233 31.1546C39.0233 31.1313 39 31.0614 39 30.9914V17.3783C39 16.6311 39.6072 16.0239 40.3777 16.0239H44.4874C49.0173 16.0239 52.6831 19.6897 52.6831 24.173ZM49.951 24.173C49.951 21.1606 47.4993 18.7326 44.4869 18.7326H41.7316V29.637L44.4869 29.6604C47.4993 29.6604 49.951 27.2086 49.951 24.173Z" fill="white"/>
<path d="M53.7344 31.014V26.1105C53.7344 23.4251 55.9292 21.207 58.6379 21.207C60.7394 21.207 62.5839 22.5381 63.2844 24.5463C63.5181 25.2468 63.1445 26.0406 62.4207 26.2742C61.6968 26.5312 60.9264 26.1343 60.6694 25.4105C60.3658 24.5467 59.572 23.9629 58.6379 23.9629C57.4472 23.9629 56.4897 24.9203 56.4897 26.111V31.0145C56.4897 31.7616 55.8592 32.3688 55.1121 32.3688C54.3649 32.3688 53.7344 31.7616 53.7344 31.0145V31.014Z" fill="white"/>
<path d="M63.541 30.8743C63.541 30.0572 64.1949 29.4033 65.012 29.4033C65.8291 29.4033 66.4829 30.0572 66.4829 30.8743C66.4829 31.6914 65.8058 32.3686 65.012 32.3686C64.2182 32.3686 63.541 31.6914 63.541 30.8743Z" fill="white"/>
<path d="M68.75 31.0141V17.3777C68.75 16.6072 69.3572 16 70.1277 16H74.9612C77.5995 16 79.7243 18.1481 79.7243 20.7631C79.7243 21.8605 79.3275 22.818 78.6736 23.5185C80.1912 24.219 81.2653 25.7832 81.2653 27.6049C81.2653 30.2199 79.1171 32.3918 76.5021 32.3918H70.1277C69.3572 32.3918 68.75 31.7612 68.75 31.0141ZM74.9608 22.8184C76.0815 22.8184 77.0156 21.9076 77.0156 20.7636C77.0156 19.6196 76.0815 18.732 74.9608 18.732H71.5049V22.8184H74.9608ZM76.5021 29.6364C77.6228 29.6364 78.5337 28.7256 78.5337 27.6049C78.5337 26.4842 77.6233 25.5733 76.5021 25.5733H71.5054V29.6364H76.5021Z" fill="white"/>
<path d="M84.814 22.6316V27.4418C84.814 28.6092 85.7947 29.5899 86.9854 29.5899C88.1761 29.5899 89.1569 28.6092 89.1569 27.4418V22.6316C89.1569 21.8611 89.7874 21.2539 90.5579 21.2539C91.3283 21.2539 91.9355 21.8611 91.9355 22.6316V27.4418C91.9355 30.1505 89.6941 32.3686 86.9854 32.3686C84.2767 32.3686 82.0586 30.1505 82.0586 27.4418V22.6316C82.0586 21.8611 82.6891 21.2539 83.4363 21.2539C84.1834 21.2539 84.814 21.8611 84.814 22.6316Z" fill="white"/>
<path d="M102.56 16.0244C101.836 16.0244 101.299 16.6312 101.299 17.355V22.2356C100.412 21.6522 99.3846 21.3243 98.2639 21.3243C95.1816 21.3243 92.707 23.8003 92.707 26.8812C92.707 29.9622 95.1816 32.4395 98.2639 32.4395C100.126 32.4395 101.795 31.4994 102.806 30.0646C102.171 29.1085 101.802 27.9617 101.802 26.7304C101.802 24.9293 102.58 23.3202 103.821 22.2155V17.355C103.821 16.6312 103.237 16.0244 102.56 16.0244ZM98.2639 29.7061C96.7226 29.7061 95.4386 28.445 95.4386 26.8808C95.4386 25.3166 96.7226 24.0555 98.2639 24.0555C99.8053 24.0555 101.089 25.3408 101.089 26.8808C101.089 28.4208 99.8053 29.7061 98.2639 29.7061Z" fill="white"/>
<path d="M113.874 26.718V26.8812C113.874 29.9402 111.353 32.4385 108.317 32.4385C105.281 32.4385 102.76 29.9402 102.76 26.8812C102.76 23.8222 105.235 21.3238 108.317 21.3238C109.438 21.3238 110.465 21.6508 111.353 22.2347V17.3545C111.353 16.6307 111.89 16.0234 112.614 16.0234C113.291 16.0234 113.875 16.6307 113.875 17.3545V26.718H113.874ZM111.143 26.8816C111.143 25.3407 109.858 24.0563 108.318 24.0563C106.777 24.0563 105.492 25.3407 105.492 26.8816C105.492 28.4226 106.777 29.707 108.318 29.707C109.858 29.707 111.143 28.4459 111.143 26.8816Z" fill="white"/>
<path d="M115.182 18.5689C115.182 17.7051 115.859 17.0513 116.699 17.0513C117.54 17.0513 118.217 17.7051 118.217 18.5689C118.217 19.386 117.54 20.1098 116.699 20.1098C115.859 20.1098 115.182 19.386 115.182 18.5689ZM115.322 30.9909V22.6548C115.322 21.9077 115.929 21.2771 116.676 21.2771C117.424 21.2771 118.077 21.9077 118.077 22.6548V30.9909C118.077 31.7613 117.447 32.3685 116.676 32.3685C115.906 32.3685 115.322 31.7613 115.322 30.9909Z" fill="white"/>
<path d="M128.353 27.7454L121.698 27.7687C122.048 28.8894 123.029 29.6133 124.313 29.777C125.27 29.8936 126.321 29.8236 127.418 29.1231C128.119 28.9128 128.866 28.9832 129.123 29.6366C129.38 30.3138 128.983 30.9909 128.329 31.3645C127.419 32.065 126.018 32.5552 123.916 32.3453C120.881 32.0184 118.85 29.6366 118.85 26.7879C118.85 23.729 121.325 21.2539 124.384 21.2539C127.443 21.2539 129.661 23.4953 129.661 26.3911C129.661 27.0682 129.147 27.6521 128.493 27.7454H128.353H128.353ZM121.675 25.8543L126.929 25.8309C126.695 24.5932 125.714 23.7761 124.384 23.7761C123.053 23.7761 122.002 24.4999 121.675 25.8543Z" fill="white"/>
<path d="M130.898 31.4814C130.221 31.2011 129.87 30.4306 130.127 29.7535C130.408 29.0296 131.178 28.726 131.879 28.983C133.864 30.0338 135.988 29.8234 136.012 29.0296C136.012 28.6328 135.311 28.2359 134.424 28.0255C131.109 27.1618 130.314 25.5971 130.431 24.2894C130.548 22.5148 132.486 21.2304 134.704 21.2537C135.989 21.277 136.969 21.604 137.833 22.0708C138.511 22.3511 138.814 23.1682 138.511 23.8454C138.23 24.4993 137.436 24.8262 136.759 24.5226C135.055 23.5651 133.444 23.962 133.397 24.5459C133.35 24.7795 133.724 25.293 134.961 25.5733C138.487 26.5308 139.001 28.0251 139.001 29.0292C139.001 30.6401 137.693 32.3447 134.774 32.4384C133.303 32.4617 131.856 31.9482 130.898 31.4809L130.898 31.4814Z" fill="white"/>
</svg>
